<svg xmlns="http://www.w3.org/2000/svg" xmlns:xlink="http://www.w3.org/1999/xlink" version="1.1" width="1000" height="1000" viewBox="0 0 1000 1000" xml:space="preserve">
<desc>Created with Fabric.js 3.5.0</desc>
<defs>
</defs>
<rect x="0" y="0" width="100%" height="100%" fill="#ffffff"/>
<g transform="matrix(3.6749 0 0 6.974 566.2255 529.6069)" id="700328">
<g style="" >
		<g transform="matrix(1 0 0 1 1.0893 -0.005)">
<path style="stroke: rgb(0,0,0); stroke-width: 1; stroke-dasharray: none; stroke-linecap: butt; stroke-dashoffset: 0; stroke-linejoin: miter; stroke-miterlimit: 4; is-custom-font: none; font-file-url: none; fill: rgb(0,91,187); fill-rule: nonzero; opacity: 1;" transform=" translate(-60.5893, -17.495)" d="m 7.98815 -1.7 l 105.20228 0 c 3.57598 0 6.48815 1.36 6.48815 3.03 l 0 32.33 c 0 1.67 -2.93359 3.03 -6.48815 3.03 l -105.20228 0 c -3.55457 0.01 -6.48815 -1.35 -6.48815 -3.02 l 0 -32.34 c 0 -1.67 2.93359 -3.03 6.48815 -3.03 l 0 0 z" stroke-linecap="round"/>
</g>
		<g transform="matrix(1 0 0 1 1.1 9.6)">
<path style="stroke: rgb(0,0,0); stroke-width: 1; stroke-dasharray: none; stroke-linecap: butt; stroke-dashoffset: 0; stroke-linejoin: miter; stroke-miterlimit: 4; is-custom-font: none; font-file-url: none; fill: rgb(255,213,0); fill-rule: nonzero; opacity: 1;" transform=" translate(-60.6, -27.1)" d="m 1.5 17.5 l 118.2 0 l 0 16.17 c 0 1.67 -2.93359 3.03 -6.48815 3.03 l -105.2237 0 c -3.55457 0 -6.48815 -1.36 -6.48815 -3.03 l 0 -16.17 l 0 0 z" stroke-linecap="round"/>
</g>
</g>
</g>
</svg>